<svg xmlns="http://www.w3.org/2000/svg" viewBox="0 0 800 167"><style>.st0{display:none;} .st1{display:inline;} .st2{fill:#FFFFFF;} .st3{fill:none;stroke:#9882CE;stroke-width:4;stroke-miterlimit:10;} .st4{fill:none;stroke:#404040;stroke-width:4;stroke-linecap:round;stroke-linejoin:round;stroke-miterlimit:10;} .st5{fill:#B3E3FF;stroke:#404040;stroke-width:4;stroke-miterlimit:10;} .st6{fill:#FFFFFF;stroke:#59AFE1;stroke-width:4;stroke-miterlimit:10;} .st7{fill:#FFFFFF;stroke:#404040;stroke-width:4;stroke-miterlimit:10;} .st8{fill:#B18BE8;stroke:#404040;stroke-width:4;stroke-linecap:round;stroke-linejoin:round;stroke-miterlimit:10;} .st9{fill:#404040;} .st10{fill:#CCCCCC;stroke:#404040;stroke-width:4;stroke-miterlimit:10;} .st11{fill:#FFFFFF;stroke:#404040;stroke-width:4;stroke-linecap:round;stroke-linejoin:round;stroke-miterlimit:10;} .st12{fill:#999999;} .st13{fill:#B3E3FF;stroke:#404040;stroke-width:4;stroke-linejoin:round;stroke-miterlimit:10;} .st14{fill:#59AFE1;stroke:#404040;stroke-width:4;stroke-linejoin:round;stroke-miterlimit:10;} .st15{fill:none;stroke:#CCCCCC;stroke-linecap:round;stroke-linejoin:round;stroke-miterlimit:10;} .st16{fill:none;stroke:#404040;stroke-width:4;stroke-miterlimit:10;} .st17{fill:#B18BE8;stroke:#404040;stroke-width:4;stroke-miterlimit:10;} .st18{fill:#FFFFFF;stroke:#6693ED;stroke-width:4;stroke-miterlimit:10;} .st19{fill:#4ED1A1;stroke:#404040;stroke-width:4;stroke-miterlimit:10;}</style><path id="repo1_230_" class="st17" d="M115.2 112.1c0-12.4 28.2-22.4 63-22.4s63 10 63 22.4m-126 0v27.9c0 3 1.7 5.9 4.7 8.5 9.4 8.2 32 13.9 58.3 13.9 26.4 0 48.9-5.8 58.3-13.9 3-2.6 4.7-5.5 4.7-8.5v-27.9"/><path class="st18" d="M241.2 112.1c0 12.4-28.2 22.4-63 22.4s-63-10-63-22.4c0-12.4 28.2-22.4 63-22.4s63 10 63 22.4z"/><path id="repo1_229_" class="st17" d="M115.2 84.2c0-12.4 28.2-22.4 63-22.4s63 10 63 22.4m-126 0v27.9c0 3 1.7 5.9 4.7 8.5 9.4 8.2 32 13.9 58.3 13.9 26.4 0 48.9-5.8 58.3-13.9 3-2.6 4.7-5.5 4.7-8.5v-27.9"/><path class="st18" d="M241.2 84.2c0 12.4-28.2 22.4-63 22.4s-63-10-63-22.4 28.2-22.4 63-22.4 63 10 63 22.4z"/><path id="repo1_228_" class="st17" d="M115.2 56.3c0-12.4 28.2-22.4 63-22.4s63 10 63 22.4m-126 0v27.9c0 3 1.7 5.9 4.7 8.5 9.4 8.2 32 13.9 58.3 13.9 26.4 0 48.9-5.8 58.3-13.9 3-2.6 4.7-5.5 4.7-8.5v-27.9"/><path class="st18" d="M241.2 56.3c0 12.4-28.2 22.4-63 22.4s-63-10-63-22.4c0-12.4 28.2-22.4 63-22.4s63 10 63 22.4z"/><path id="repo1_227_" class="st17" d="M115.2 28.4c0-12.4 28.2-22.4 63-22.4s63 10 63 22.4m-126 0v27.9c0 3 1.7 5.9 4.7 8.5 9.4 8.2 32 13.9 58.3 13.9 26.4 0 48.9-5.8 58.3-13.9 3-2.6 4.7-5.5 4.7-8.5v-27.9"/><path class="st7" d="M241.2 28.4c0 12.4-28.2 22.4-63 22.4s-63-10-63-22.4c0-12.4 28.2-22.4 63-22.4s63 10 63 22.4z"/><path id="repo1_226_" class="st5" d="M339.2 112.1c0-12.4 28.2-22.4 63-22.4s63 10 63 22.4m-126 0v27.9c0 3 1.7 5.9 4.7 8.5 9.4 8.2 32 13.9 58.3 13.9 26.4 0 48.9-5.8 58.3-13.9 3-2.6 4.7-5.5 4.7-8.5v-27.9"/><path class="st18" d="M465.2 112.1c0 12.4-28.2 22.4-63 22.4s-63-10-63-22.4c0-12.4 28.2-22.4 63-22.4s63 10 63 22.4z"/><path id="repo1_225_" class="st5" d="M339.2 84.2c0-12.4 28.2-22.4 63-22.4s63 10 63 22.4m-126 0v27.9c0 3 1.7 5.9 4.7 8.5 9.4 8.2 32 13.9 58.3 13.9 26.4 0 48.9-5.8 58.3-13.9 3-2.6 4.7-5.5 4.7-8.5v-27.9"/><path class="st18" d="M465.2 84.2c0 12.4-28.2 22.4-63 22.4s-63-10-63-22.4 28.2-22.4 63-22.4 63 10 63 22.4z"/><path id="repo1_224_" class="st5" d="M339.2 56.3c0-12.4 28.2-22.4 63-22.4s63 10 63 22.4m-126 0v27.9c0 3 1.7 5.9 4.7 8.5 9.4 8.2 32 13.9 58.3 13.9 26.4 0 48.9-5.8 58.3-13.9 3-2.6 4.7-5.5 4.7-8.5v-27.9"/><path class="st18" d="M465.2 56.3c0 12.4-28.2 22.4-63 22.4s-63-10-63-22.4c0-12.4 28.2-22.4 63-22.4s63 10 63 22.4z"/><path id="repo1_223_" class="st5" d="M339.2 28.4c0-12.4 28.2-22.4 63-22.4s63 10 63 22.4m-126 0v27.9c0 3 1.7 5.9 4.7 8.5 9.4 8.2 32 13.9 58.3 13.9 26.4 0 48.9-5.8 58.3-13.9 3-2.6 4.7-5.5 4.7-8.5v-27.9"/><path class="st7" d="M465.2 28.4c0 12.4-28.2 22.4-63 22.4s-63-10-63-22.4c0-12.4 28.2-22.4 63-22.4s63 10 63 22.4z"/><path id="repo1_222_" class="st19" d="M562.8 112.1c0-12.4 28.2-22.4 63-22.4s63 10 63 22.4m-126 0v27.9c0 3 1.7 5.9 4.7 8.5 9.4 8.2 32 13.9 58.3 13.9 26.4 0 48.9-5.8 58.3-13.9 3-2.6 4.7-5.5 4.7-8.5v-27.9"/><path class="st18" d="M688.8 112.1c0 12.4-28.2 22.4-63 22.4s-63-10-63-22.4c0-12.4 28.2-22.4 63-22.4s63 10 63 22.4z"/><path id="repo1_221_" class="st19" d="M562.8 84.2c0-12.4 28.2-22.4 63-22.4s63 10 63 22.4m-126 0v27.9c0 3 1.7 5.9 4.7 8.5 9.4 8.2 32 13.9 58.3 13.9 26.4 0 48.9-5.8 58.3-13.9 3-2.6 4.7-5.5 4.7-8.5v-27.9"/><path class="st18" d="M688.8 84.2c0 12.4-28.2 22.4-63 22.4s-63-10-63-22.4 28.2-22.4 63-22.4 63 10 63 22.4z"/><path id="repo1_220_" class="st19" d="M562.8 56.3c0-12.4 28.2-22.4 63-22.4s63 10 63 22.4m-126 0v27.9c0 3 1.7 5.9 4.7 8.5 9.4 8.2 32 13.9 58.3 13.9 26.4 0 48.9-5.8 58.3-13.9 3-2.6 4.7-5.5 4.7-8.5v-27.9"/><path class="st18" d="M688.8 56.3c0 12.4-28.2 22.4-63 22.4s-63-10-63-22.4c0-12.4 28.2-22.4 63-22.4s63 10 63 22.4z"/><path id="repo1_219_" class="st19" d="M562.8 28.4c0-12.4 28.2-22.4 63-22.4s63 10 63 22.4m-126 0v27.9c0 3 1.7 5.9 4.7 8.5 9.4 8.2 32 13.9 58.3 13.9 26.4 0 48.9-5.8 58.3-13.9 3-2.6 4.7-5.5 4.7-8.5v-27.9"/><path class="st7" d="M688.8 28.4c0 12.4-28.2 22.4-63 22.4s-63-10-63-22.4c0-12.4 28.2-22.4 63-22.4s63 10 63 22.4z"/><path class="st4" d="M313.7 89.7h-46.2m8.8 10.9l-10.9-10.9 10.9-10.8m28.4 0l10.9 10.8-10.9 10.9m232.3-10.9h-46.1m8.7 10.9l-10.8-10.9 10.8-10.8m28.4 0l10.9 10.8-10.9 10.9"/></svg>